# xmcd
#
# Track frame offsets:
#	150
#	11438
#	23447
#	31176
#	43550
#	55841
#	67546
#	80560
#	94473
#	105927
#	120029
#	133966
#	152396
#	159794
#	175901
#	191031
#	203614
#	215114
#	237804
#	254996
#
# Disc length: 3564 seconds
#
# Revision: 1
# Processed by: cddbd v1.5.2PL0 Copyright (c) Steve Scherf et al.
# Submitted via: audiograbber 1.83.01
#
DISCID=f60dea14
DTITLE=Various Artist - The Best Of County Party - CD 02
DYEAR=2014
DGENRE=Country
TTITLE0=Carl Smith - Hey Joe
TTITLE1=Waylon Jennings - Don't Think Twice, It's Alright
TTITLE2=Dolly Parton - Puppy Love
TTITLE3=Frankie Laine - High Noon
TTITLE4=Johnny Cash - I Walk The Line
TTITLE5=Donna Fargo - The Happiest Girl In The USA
TTITLE6=Kenny Rogers - Ruby Don't Take Your Love To Town
TTITLE7=Tex Ritter - Conversation With A Gun
TTITLE8=Hank Locklin - Send Me The Pillow You Dream On
TTITLE9=Jerry Lee Lewis - Cold Cold Heart
TTITLE10=Claud Diamond - Spend A Little Time With Me
TTITLE11=Juice Newton - The Sweetest Thing
TTITLE12=Merle Haggard - I Am A Lonesome Fugitive
TTITLE13=Aubree Bullock - If The End Was Easy
TTITLE14=Exile - I Don't Want To Be A Memory
TTITLE15=The Country Dance Kings - I'm In A Hurry (And Don't Know Why)
TTITLE16=Eddy Arnold - Kentucky Waltz
TTITLE17=Pam Tillis - Maybe It Was Memphis
TTITLE18=Jan Vardoen - Wild Side Of Life
TTITLE19=Willie Nelson - The Shelter Of Your Arms
EXTD=
EXTT0=
EXTT1=
EXTT2=
EXTT3=
EXTT4=
EXTT5=
EXTT6=
EXTT7=
EXTT8=
EXTT9=
EXTT10=
EXTT11=
EXTT12=
EXTT13=
EXTT14=
EXTT15=
EXTT16=
EXTT17=
EXTT18=
EXTT19=
PLAYORDER=
